<!-- Retro Browser Style Banner -->
<svg viewBox="0 0 1280 420" xmlns="http://www.w3.org/2000/svg" preserveAspectRatio="xMidYMid meet">
  <defs>
    <linearGradient id="toolbar" x1="0" y1="0" x2="0" y2="1">
      <stop offset="0%" stop-color="#eaeaea"></stop>
      <stop offset="100%" stop-color="#dcdcdc"></stop>
    </linearGradient>
    <linearGradient id="pagebg" x1="0" y1="0" x2="0" y2="1">
      <stop offset="0%" stop-color="#ffffff"></stop>
      <stop offset="100%" stop-color="#f6f7fb"></stop>
    </linearGradient>
    <style>
      .title { font: 700 26px 'Inter', sans-serif; fill: #111; }
      .sub { font: 500 14px 'Inter', sans-serif; fill: #333; }
      .btn { font: 600 13px 'Inter', sans-serif; fill: #111; }
      .badge { font: 600 13px 'Inter', sans-serif; fill: #fff; }
    </style>
  </defs>

  <!-- Outer shell -->
  <rect x="30" y="20" width="1220" height="380" rx="16" ry="16" fill="#ffffff" stroke="#ddd"></rect>
  <rect x="30" y="20" width="1220" height="64" rx="16" ry="16" fill="url(#toolbar)"></rect>
  <circle cx="58" cy="52" r="7" fill="#ff5f56"></circle>
  <circle cx="80" cy="52" r="7" fill="#ffbd2e"></circle>
  <circle cx="102" cy="52" r="7" fill="#27c93f"></circle>

  <!-- Address bar -->
  <rect x="140" y="32" width="1080" height="32" rx="8" ry="8" fill="#fff" stroke="#ccc"></rect>
  <text x="160" y="53" class="sub">https://www.google.com/search?q=vyshnav</text>

  <!-- Page body -->
  <rect x="30" y="84" width="1220" height="316" fill="url(#pagebg)"></rect>

  <!-- Page title -->
  <text x="640" y="150" text-anchor="middle" class="title">Vyshnav Vinod</text>
  <text x="640" y="175" text-anchor="middle" class="sub">Cybersecurity Graduate · Developer · Explorer</text>

  <!-- Search box -->
  <rect x="300" y="200" width="680" height="44" rx="12" ry="12" fill="#ffffff" stroke="#d0d0d0"></rect>
  <text x="320" y="228" class="sub">vyshnav</text>

  <!-- Buttons -->
  <rect x="520" y="255" width="140" height="34" rx="10" ry="10" fill="#f0f0f0" stroke="#ccc"></rect>
  <text x="590" y="277" text-anchor="middle" class="btn">Search</text>
  <rect x="670" y="255" width="190" height="34" rx="10" ry="10" fill="#f0f0f0" stroke="#ccc"></rect>
  <text x="765" y="277" text-anchor="middle" class="btn">I'm Feeling Lucky</text>

  <!-- Badges -->
  <image x="930" y="320" width="170" height="28" href="https://custom-icon-badges.demolab.com/github/stars/iam-yshnav?color=55960c&amp;style=for-the-badge&amp;labelColor=488207&amp;logo=star&amp;label=Stars"></image>
  <image x="1110" y="320" width="120" height="28" href="https://hits.seeyoufarm.com/api/count/incr/badge.svg?url=https://github.com/iam-yshnav&amp;count_bg=%237B68EE&amp;title_bg=%23555555&amp;icon=github.svg&amp;icon_color=%23FFFFFF&amp;title=Profile+Views&amp;edge_flat=false&amp;initialCount=100"></image>
</svg>
